<svg xmlns="http://www.w3.org/2000/svg" xmlns:xlink="http://www.w3.org/1999/xlink" zoomAndPan="magnify" preserveAspectRatio="xMidYMid meet" version="1.0" viewBox="40.17 115.07 285.5 129.9"><defs><g/></defs><path fill="#ffffff" d="M 70.894531 198.289062 C 66.699219 202.59375 60.164062 196.222656 64.359375 191.90625 C 68.554688 187.605469 75.089844 193.988281 70.894531 198.289062 Z M 166.226562 192.4375 C 164.414062 200.96875 160.773438 209.195312 155.296875 216.484375 C 158.960938 220.726562 153.542969 226.804688 148.914062 223.722656 C 144.175781 228.320312 138.875 232.011719 133.246094 234.785156 C 135.148438 242.648438 124.019531 246.527344 120.527344 239.332031 C 116.191406 240.390625 111.714844 240.988281 107.164062 241.070312 C 104.816406 246.773438 96.375 246.03125 95 240.085938 C 88.925781 238.96875 82.777344 236.851562 77.40625 234.042969 C 72.164062 238.378906 64.511719 233.304688 66.59375 226.816406 C 59.90625 221.222656 54.535156 214.332031 50.738281 206.578125 C 43.863281 207.84375 40.3125 198.417969 46.414062 194.882812 C 44.742188 188.417969 44.109375 181.625 44.660156 174.75 C 37.527344 172.550781 39.324219 161.503906 47.058594 161.949219 C 50.714844 149.703125 57.871094 139.417969 67.121094 131.894531 C 63.101562 124.042969 73.292969 116.238281 79.78125 122.5625 C 80.097656 122.867188 80.367188 123.199219 80.625 123.539062 C 90.417969 119.097656 101.40625 117.191406 112.570312 118.414062 C 114.652344 112.960938 122.855469 114.570312 122.738281 120.390625 C 125.6875 121.210938 128.589844 122.269531 131.414062 123.550781 C 134.210938 120.578125 139.027344 123.28125 138.125 127.101562 C 139.722656 128.074219 141.296875 129.15625 142.835938 130.308594 C 146.492188 133.035156 149.886719 136.222656 152.839844 139.664062 C 156.035156 138.441406 159.066406 142.285156 157 145.105469 C 159.125 148.246094 160.9375 151.535156 162.429688 154.945312 C 167.765625 154.15625 170.386719 161.503906 165.625 164.207031 C 166.929688 169.28125 167.578125 174.5 167.566406 179.71875 C 174.886719 181.402344 173.734375 192.332031 166.226562 192.4375 Z M 150.863281 144.472656 C 148.429688 144.777344 146 145.199219 143.589844 145.707031 C 143.695312 146.824219 143.566406 147.960938 143.199219 149.03125 C 148.667969 151.160156 153.980469 153.851562 159.03125 157.082031 L 160.3125 155.800781 C 159.492188 153.933594 158.574219 152.097656 157.574219 150.324219 C 156.824219 148.996094 156.011719 147.691406 155.152344 146.421875 C 153.507812 146.917969 151.59375 146.09375 150.863281 144.472656 Z M 100.914062 171.914062 C 108.082031 174.5 115.015625 178.027344 121.527344 182.503906 C 121.796875 182.269531 122.09375 182.070312 122.386719 181.90625 C 119.90625 175.066406 116.566406 168.460938 112.359375 162.289062 C 111.066406 162.855469 109.539062 162.722656 108.339844 161.890625 C 105.519531 164.039062 102.804688 166.378906 100.207031 168.90625 C 100.769531 169.824219 101.007812 170.882812 100.914062 171.914062 Z M 127.921875 144.578125 C 128.050781 144.023438 128.25 143.472656 128.507812 142.957031 C 121.609375 138.558594 114.242188 135.210938 106.636719 132.90625 C 104.980469 135.128906 103.4375 137.40625 102.015625 139.722656 C 103.109375 140.488281 103.957031 141.605469 104.355469 142.992188 C 112.242188 142.507812 120.164062 143.039062 127.921875 144.578125 Z M 127.699219 146.785156 C 120.082031 145.246094 112.3125 144.71875 104.578125 145.199219 C 104.496094 146.234375 104.15625 147.246094 103.570312 148.152344 C 105.613281 150.21875 107.542969 152.359375 109.351562 154.566406 C 110.785156 154.074219 112.476562 154.378906 113.617188 155.53125 C 118.191406 152.652344 122.972656 150.207031 127.886719 148.210938 C 127.78125 147.75 127.722656 147.269531 127.699219 146.785156 Z M 92.519531 146.785156 C 78.214844 149.65625 64.5 156.070312 52.769531 165.992188 C 53.054688 166.660156 53.21875 167.378906 53.253906 168.097656 C 65.992188 165.722656 79.097656 166.050781 91.769531 169.164062 C 91.980469 168.765625 92.25 168.390625 92.578125 168.0625 C 94.214844 166.390625 96.761719 166.144531 98.65625 167.34375 C 101.300781 164.769531 104.0625 162.382812 106.929688 160.199219 C 106.296875 158.789062 106.484375 157.082031 107.53125 155.847656 C 105.8125 153.757812 103.980469 151.722656 102.039062 149.761719 C 98.75 152.148438 93.859375 150.605469 92.519531 146.785156 Z M 124.5 181.234375 C 125.277344 181.152344 126.054688 181.246094 126.804688 181.496094 C 130.8125 172.820312 133.363281 163.640625 134.421875 154.332031 C 132.082031 153.96875 129.835938 152.417969 128.671875 150.277344 C 123.867188 152.230469 119.199219 154.613281 114.734375 157.449219 C 115.027344 158.609375 114.816406 159.867188 114.097656 160.890625 C 118.472656 167.296875 121.9375 174.136719 124.5 181.234375 Z M 128.722656 182.621094 C 129.25 183.105469 129.660156 183.667969 129.953125 184.269531 C 134.019531 182.503906 137.96875 180.4375 141.777344 178.050781 C 141.320312 169.988281 139.78125 161.996094 137.148438 154.285156 C 136.984375 154.320312 136.820312 154.34375 136.652344 154.367188 C 135.5625 164.0625 132.917969 173.621094 128.722656 182.621094 Z M 129.953125 189.050781 C 133.410156 192.074219 136.582031 195.304688 139.476562 198.703125 C 139.828125 198.546875 140.203125 198.464844 140.589844 198.441406 C 141.625 192.53125 142.050781 186.546875 141.882812 180.589844 C 138.207031 182.824219 134.410156 184.773438 130.496094 186.441406 C 130.53125 187.335938 130.355469 188.230469 129.953125 189.050781 Z M 143.90625 176.6875 C 147.621094 174.207031 151.179688 171.433594 154.542969 168.34375 C 150.675781 162.617188 146.082031 157.234375 140.898438 152.476562 C 140.378906 152.921875 139.828125 153.296875 139.238281 153.59375 C 141.789062 161.089844 143.355469 168.847656 143.90625 176.6875 Z M 156.175781 166.804688 C 157.351562 165.675781 158.503906 164.511719 159.621094 163.300781 C 158.597656 162.230469 158.011719 160.738281 158.234375 159.175781 C 153.320312 156 148.171875 153.355469 142.859375 151.265625 C 147.902344 155.976562 152.378906 161.230469 156.175781 166.804688 Z M 136.066406 129.710938 C 136.535156 132.671875 136.867188 135.644531 137.042969 138.617188 C 139.675781 139.078125 142.085938 141.027344 143.070312 143.554688 C 145.574219 143.027344 148.089844 142.589844 150.617188 142.273438 C 150.699219 141.863281 150.863281 141.449219 151.097656 141.085938 C 147.089844 136.363281 142.320312 132.285156 137.03125 129.027344 C 136.738281 129.308594 136.417969 129.546875 136.066406 129.710938 Z M 121.773438 123.328125 C 126.066406 128.253906 129.730469 133.515625 132.789062 139.042969 C 133.445312 138.78125 134.128906 138.617188 134.832031 138.546875 C 134.65625 135.714844 134.339844 132.90625 133.890625 130.097656 C 131.695312 129.863281 130.085938 127.699219 130.449219 125.535156 C 127.828125 124.351562 125.089844 123.351562 122.246094 122.539062 C 122.105469 122.808594 121.949219 123.082031 121.773438 123.328125 Z M 108.082031 131.039062 C 115.617188 133.398438 122.914062 136.761719 129.765625 141.121094 L 130.871094 140.109375 C 127.898438 134.726562 124.324219 129.605469 120.164062 124.820312 C 118.132812 126.007812 115.699219 125.585938 114.074219 124.195312 Z M 81.695312 125.523438 C 81.859375 125.972656 81.976562 126.429688 82.058594 126.902344 C 90.050781 127.007812 98.042969 128.15625 105.800781 130.367188 L 112.699219 122.421875 C 112.441406 121.871094 112.289062 121.269531 112.242188 120.625 C 101.839844 119.542969 91.332031 121.1875 81.695312 125.523438 Z M 81.414062 131.683594 C 85.890625 134.058594 90.21875 136.820312 94.332031 139.992188 C 95.976562 138.582031 98.113281 138.253906 100.007812 138.78125 C 101.359375 136.5625 102.804688 134.386719 104.367188 132.261719 C 97.09375 130.261719 89.617188 129.214844 82.128906 129.109375 C 82.046875 129.992188 81.800781 130.859375 81.414062 131.683594 Z M 49.292969 162.476562 L 51.570312 164.113281 C 63.570312 154.027344 77.582031 147.515625 92.167969 144.601562 C 92.191406 143.601562 92.449219 142.601562 92.945312 141.710938 C 88.890625 138.582031 84.621094 135.855469 80.191406 133.542969 C 77.113281 137.03125 71.671875 137.136719 68.449219 133.765625 C 59.386719 141.214844 52.523438 151.710938 49.292969 162.476562 Z M 92.15625 174.359375 C 91.484375 173.457031 91.167969 172.375 91.191406 171.292969 C 78.628906 168.214844 65.605469 167.941406 52.980469 170.386719 C 52.148438 173.195312 49.550781 174.925781 46.859375 175.03125 C 46.351562 181.554688 46.941406 187.996094 48.503906 194.128906 C 55.308594 192.953125 58.8125 202.214844 52.816406 205.789062 C 56.390625 213.039062 61.410156 219.503906 67.625 224.792969 C 68.566406 223.511719 69.964844 222.550781 71.695312 222.195312 C 73.644531 205.070312 80.460938 188.382812 92.15625 174.359375 Z M 79.449219 226.558594 C 96.527344 219.667969 111.808594 206.894531 121.703125 190.957031 C 119.648438 189.347656 119.058594 186.5 120.164062 184.257812 C 113.851562 179.929688 107.140625 176.523438 100.195312 174.019531 C 98.867188 176.171875 96.023438 176.910156 93.835938 175.792969 C 82.507812 189.382812 75.878906 205.53125 73.914062 222.113281 C 76.371094 222.417969 78.617188 224.207031 79.449219 226.558594 Z M 125.40625 192.097656 C 124.832031 192.132812 124.253906 192.085938 123.703125 191.929688 C 113.476562 208.492188 97.609375 221.714844 79.851562 228.777344 C 79.863281 230.105469 79.507812 231.304688 78.886719 232.316406 C 83.789062 234.832031 89.359375 236.746094 94.871094 237.804688 C 95.894531 229.824219 107.90625 230.800781 107.625 238.851562 C 111.796875 238.734375 115.910156 238.179688 119.90625 237.21875 C 119.519531 233.679688 122.007812 230.046875 125.96875 229.648438 C 128.449219 217.238281 128.25 204.425781 125.40625 192.097656 Z M 128.601562 229.90625 C 133.421875 222.148438 136.925781 213.816406 139.132812 205.222656 C 137.324219 204.25 136.714844 201.851562 137.78125 200.136719 C 134.984375 196.84375 131.929688 193.730469 128.589844 190.816406 C 128.261719 191.097656 127.910156 191.332031 127.535156 191.53125 C 130.449219 204.097656 130.683594 217.164062 128.203125 229.8125 C 128.332031 229.824219 128.472656 229.859375 128.601562 229.90625 Z M 148.5 215.921875 C 146.585938 212.324219 144.410156 208.820312 141.976562 205.472656 C 141.753906 205.542969 141.53125 205.601562 141.308594 205.625 C 139.074219 214.414062 135.503906 222.949219 130.601562 230.894531 L 132.316406 232.703125 C 137.839844 229.964844 142.917969 226.378906 147.363281 222.066406 C 146.234375 220.070312 146.65625 217.4375 148.5 215.921875 Z M 163.957031 192.0625 C 159.5625 190.484375 158.234375 184.515625 161.78125 181.257812 C 160.078125 177.5 158.070312 173.796875 155.777344 170.222656 C 152.074219 173.585938 148.148438 176.59375 144.046875 179.25 C 144.328125 185.832031 143.894531 192.449219 142.742188 198.984375 C 144.515625 200.078125 144.988281 202.519531 143.765625 204.179688 C 146.269531 207.632812 148.511719 211.230469 150.476562 214.945312 C 151.453125 214.710938 152.484375 214.792969 153.425781 215.167969 C 158.375 208.574219 162.136719 200.464844 163.957031 192.0625 Z M 165.296875 179.613281 C 165.296875 174.570312 164.664062 169.625 163.441406 164.851562 C 162.757812 164.886719 162.089844 164.78125 161.488281 164.546875 C 160.171875 165.980469 158.808594 167.355469 157.421875 168.683594 C 159.796875 172.363281 161.886719 176.171875 163.664062 180.0625 C 164.191406 179.835938 164.746094 179.683594 165.296875 179.613281 Z M 154.15625 196.351562 C 151.109375 195.503906 149.828125 200.148438 152.875 200.992188 C 155.90625 201.839844 157.199219 197.195312 154.15625 196.351562 Z M 108.28125 193.554688 C 112.207031 194.175781 113.160156 188.195312 109.234375 187.570312 C 105.308594 186.949219 104.355469 192.929688 108.28125 193.554688 Z M 108.824219 218.777344 C 103.851562 217.402344 101.746094 224.980469 106.730469 226.355469 C 111.703125 227.730469 113.792969 220.152344 108.824219 218.777344 Z M 85.480469 154.285156 C 81.296875 153.121094 79.519531 159.515625 83.71875 160.679688 C 87.902344 161.832031 89.664062 155.4375 85.480469 154.285156 Z M 85.480469 154.285156 " fill-opacity="1" fill-rule="nonzero"/><g fill="#ffffff" fill-opacity="1"><g transform="translate(197.157414, 154.697031)"><g><path d="M 18.867188 -23.503906 L 0.703125 -23.503906 L 0.703125 -18.769531 L 7.253906 -18.769531 L 7.253906 0 L 12.320312 0 L 12.320312 -18.769531 L 18.867188 -18.769531 Z M 18.867188 -23.503906 "/></g></g></g><g fill="#ffffff" fill-opacity="1"><g transform="translate(216.764113, 154.697031)"><g><path d="M 19.941406 -9.097656 C 19.941406 -14.335938 16.117188 -18.632812 10.542969 -18.632812 C 5.171875 -18.632812 1.140625 -14.503906 1.140625 -9.066406 C 1.140625 -3.625 5.203125 0.539062 10.542969 0.539062 C 14.773438 0.539062 18.230469 -1.980469 19.539062 -5.941406 L 14.402344 -5.941406 C 13.664062 -4.632812 12.253906 -3.828125 10.542969 -3.828125 C 8.160156 -3.828125 6.546875 -5.203125 6.109375 -7.6875 L 19.84375 -7.6875 C 19.910156 -8.160156 19.941406 -8.628906 19.941406 -9.097656 Z M 10.542969 -14.4375 C 12.757812 -14.4375 14.335938 -13.226562 15.042969 -11.011719 L 6.246094 -11.011719 C 6.816406 -13.160156 8.359375 -14.4375 10.542969 -14.4375 Z M 10.542969 -14.4375 "/></g></g></g><g fill="#ffffff" fill-opacity="1"><g transform="translate(237.848031, 154.697031)"><g><path d="M 18.96875 0 L 12.1875 -9.46875 L 18.332031 -18.128906 L 12.691406 -18.128906 L 7.253906 -10.074219 L 7.253906 -24.644531 L 2.351562 -24.644531 L 2.351562 0 L 7.253906 0 L 7.253906 -8.664062 L 13.027344 0 Z M 18.96875 0 "/></g></g></g><g fill="#ffffff" fill-opacity="1"><g transform="translate(256.682547, 154.697031)"><g><path d="M 12.65625 -18.53125 C 10.207031 -18.53125 8.023438 -17.492188 6.648438 -15.878906 L 5.707031 -18.128906 L 2.351562 -18.128906 L 2.351562 0 L 7.253906 0 L 7.253906 -9.5 C 7.253906 -12.421875 8.796875 -14.234375 11.316406 -14.234375 C 13.429688 -14.234375 14.46875 -12.925781 14.46875 -10.171875 L 14.46875 0 L 19.371094 0 L 19.371094 -10.980469 C 19.371094 -15.578125 16.789062 -18.53125 12.65625 -18.53125 Z M 12.65625 -18.53125 "/></g></g></g><g fill="#ffffff" fill-opacity="1"><g transform="translate(278.202917, 154.697031)"><g><path d="M 10.945312 0.539062 C 16.550781 0.539062 20.75 -3.59375 20.75 -9.066406 C 20.75 -14.539062 16.550781 -18.632812 10.945312 -18.632812 C 5.339844 -18.632812 1.140625 -14.539062 1.140625 -9.066406 C 1.140625 -3.59375 5.339844 0.539062 10.945312 0.539062 Z M 10.945312 -4.097656 C 8.125 -4.097656 6.109375 -6.109375 6.109375 -9.066406 C 6.109375 -11.984375 8.125 -14.035156 10.945312 -14.035156 C 13.765625 -14.035156 15.78125 -11.984375 15.78125 -9.066406 C 15.78125 -6.109375 13.765625 -4.097656 10.945312 -4.097656 Z M 10.945312 -4.097656 "/></g></g></g><g fill="#ffffff" fill-opacity="1"><g transform="translate(197.157414, 188.69319)"><g><path d="M 18.867188 -23.503906 L 0.703125 -23.503906 L 0.703125 -18.769531 L 7.253906 -18.769531 L 7.253906 0 L 12.320312 0 L 12.320312 -18.769531 L 18.867188 -18.769531 Z M 18.867188 -23.503906 "/></g></g></g><g fill="#ffffff" fill-opacity="1"><g transform="translate(216.764113, 188.69319)"><g><path d="M 11.617188 -18.230469 C 9.265625 -18.230469 7.65625 -17.492188 6.34375 -15.878906 L 5.472656 -18.128906 L 2.351562 -18.128906 L 2.351562 0 L 7.253906 0 L 7.253906 -9.402344 C 7.253906 -12.355469 8.328125 -13.597656 11.078125 -13.597656 L 13.226562 -13.597656 L 13.226562 -18.230469 Z M 11.617188 -18.230469 "/></g></g></g><g fill="#ffffff" fill-opacity="1"><g transform="translate(230.428375, 188.69319)"><g><path d="M 2.351562 -20.546875 L 7.21875 -20.546875 L 7.21875 -25.078125 L 2.351562 -25.078125 Z M 2.351562 0 L 7.253906 0 L 7.253906 -18.128906 L 2.351562 -18.128906 Z M 2.351562 0 "/></g></g></g><g fill="#ffffff" fill-opacity="1"><g transform="translate(240.030285, 188.69319)"><g><path d="M 12.222656 -18.632812 C 10.339844 -18.632812 8.628906 -18.097656 7.253906 -17.121094 L 7.253906 -24.644531 L 2.351562 -24.644531 L 2.351562 0.0351562 L 5.941406 0.0351562 L 6.546875 -1.511719 C 8.058594 -0.203125 10.003906 0.539062 12.222656 0.539062 C 17.726562 0.539062 21.757812 -3.558594 21.757812 -9.03125 C 21.757812 -14.539062 17.726562 -18.632812 12.222656 -18.632812 Z M 11.816406 -4.097656 C 8.964844 -4.097656 6.882812 -6.246094 6.882812 -9.066406 C 6.882812 -11.886719 8.964844 -14.035156 11.816406 -14.035156 C 14.671875 -14.035156 16.753906 -11.886719 16.753906 -9.066406 C 16.753906 -6.246094 14.671875 -4.097656 11.816406 -4.097656 Z M 11.816406 -4.097656 "/></g></g></g><g fill="#ffffff" fill-opacity="1"><g transform="translate(262.960726, 188.69319)"><g><path d="M 10.609375 0.539062 C 15.746094 0.539062 19.136719 -2.753906 19.136719 -7.65625 L 19.136719 -18.128906 L 14.234375 -18.128906 L 14.234375 -8.191406 C 14.234375 -5.640625 12.890625 -4.097656 10.609375 -4.097656 C 8.359375 -4.097656 6.984375 -5.605469 6.984375 -8.191406 L 6.984375 -18.128906 L 2.082031 -18.128906 L 2.082031 -7.65625 C 2.082031 -2.753906 5.507812 0.539062 10.609375 0.539062 Z M 10.609375 0.539062 "/></g></g></g><g fill="#ffffff" fill-opacity="1"><g transform="translate(284.212514, 188.69319)"><g><path d="M 12.65625 -18.53125 C 10.207031 -18.53125 8.023438 -17.492188 6.648438 -15.878906 L 5.707031 -18.128906 L 2.351562 -18.128906 L 2.351562 0 L 7.253906 0 L 7.253906 -9.5 C 7.253906 -12.421875 8.796875 -14.234375 11.316406 -14.234375 C 13.429688 -14.234375 14.46875 -12.925781 14.46875 -10.171875 L 14.46875 0 L 19.371094 0 L 19.371094 -10.980469 C 19.371094 -15.578125 16.789062 -18.53125 12.65625 -18.53125 Z M 12.65625 -18.53125 "/></g></g></g><g fill="#ffffff" fill-opacity="1"><g transform="translate(305.732884, 188.69319)"><g><path d="M 19.941406 -9.097656 C 19.941406 -14.335938 16.117188 -18.632812 10.542969 -18.632812 C 5.171875 -18.632812 1.140625 -14.503906 1.140625 -9.066406 C 1.140625 -3.625 5.203125 0.539062 10.542969 0.539062 C 14.773438 0.539062 18.230469 -1.980469 19.539062 -5.941406 L 14.402344 -5.941406 C 13.664062 -4.632812 12.253906 -3.828125 10.542969 -3.828125 C 8.160156 -3.828125 6.546875 -5.203125 6.109375 -7.6875 L 19.84375 -7.6875 C 19.910156 -8.160156 19.941406 -8.628906 19.941406 -9.097656 Z M 10.542969 -14.4375 C 12.757812 -14.4375 14.335938 -13.226562 15.042969 -11.011719 L 6.246094 -11.011719 C 6.816406 -13.160156 8.359375 -14.4375 10.542969 -14.4375 Z M 10.542969 -14.4375 "/></g></g></g><g fill="#ffffff" fill-opacity="1"><g transform="translate(197.157414, 222.689349)"><g><path d="M 9.402344 0.539062 C 14.539062 0.539062 17.929688 -3.023438 17.929688 -7.992188 L 17.929688 -23.503906 L 12.925781 -23.503906 L 12.925781 -8.257812 C 12.925781 -5.808594 11.484375 -4.265625 9.402344 -4.265625 C 7.21875 -4.265625 5.773438 -5.84375 5.773438 -8.257812 L 5.773438 -8.863281 L 0.738281 -8.863281 L 0.738281 -7.992188 C 0.738281 -3.023438 4.363281 0.539062 9.402344 0.539062 Z M 9.402344 0.539062 "/></g></g></g><g fill="#ffffff" fill-opacity="1"><g transform="translate(217.603444, 222.689349)"><g><path d="M 17.121094 -18.128906 L 16.621094 -16.417969 C 15.042969 -17.792969 12.992188 -18.632812 10.644531 -18.632812 C 5.203125 -18.632812 1.140625 -14.539062 1.140625 -9.066406 C 1.140625 -3.59375 5.203125 0.539062 10.644531 0.539062 C 12.960938 0.539062 14.972656 -0.269531 16.519531 -1.644531 L 16.953125 0 L 20.78125 0 L 20.78125 -18.128906 Z M 11.046875 -4.097656 C 8.191406 -4.097656 6.109375 -6.246094 6.109375 -9.066406 C 6.109375 -11.917969 8.191406 -14.035156 11.046875 -14.035156 C 13.898438 -14.035156 15.980469 -11.917969 15.980469 -9.066406 C 15.980469 -6.210938 13.898438 -4.097656 11.046875 -4.097656 Z M 11.046875 -4.097656 "/></g></g></g><g fill="#ffffff" fill-opacity="1"><g transform="translate(240.768894, 222.689349)"><g><path d="M 12.222656 -18.632812 C 10.339844 -18.632812 8.628906 -18.097656 7.253906 -17.121094 L 7.253906 -24.644531 L 2.351562 -24.644531 L 2.351562 0.0351562 L 5.941406 0.0351562 L 6.546875 -1.511719 C 8.058594 -0.203125 10.003906 0.539062 12.222656 0.539062 C 17.726562 0.539062 21.757812 -3.558594 21.757812 -9.03125 C 21.757812 -14.539062 17.726562 -18.632812 12.222656 -18.632812 Z M 11.816406 -4.097656 C 8.964844 -4.097656 6.882812 -6.246094 6.882812 -9.066406 C 6.882812 -11.886719 8.964844 -14.035156 11.816406 -14.035156 C 14.671875 -14.035156 16.753906 -11.886719 16.753906 -9.066406 C 16.753906 -6.246094 14.671875 -4.097656 11.816406 -4.097656 Z M 11.816406 -4.097656 "/></g></g></g><g fill="#ffffff" fill-opacity="1"><g transform="translate(263.699335, 222.689349)"><g><path d="M 17.121094 -18.128906 L 16.621094 -16.417969 C 15.042969 -17.792969 12.992188 -18.632812 10.644531 -18.632812 C 5.203125 -18.632812 1.140625 -14.539062 1.140625 -9.066406 C 1.140625 -3.59375 5.203125 0.539062 10.644531 0.539062 C 12.960938 0.539062 14.972656 -0.269531 16.519531 -1.644531 L 16.953125 0 L 20.78125 0 L 20.78125 -18.128906 Z M 11.046875 -4.097656 C 8.191406 -4.097656 6.109375 -6.246094 6.109375 -9.066406 C 6.109375 -11.917969 8.191406 -14.035156 11.046875 -14.035156 C 13.898438 -14.035156 15.980469 -11.917969 15.980469 -9.066406 C 15.980469 -6.210938 13.898438 -4.097656 11.046875 -4.097656 Z M 11.046875 -4.097656 "/></g></g></g><g fill="#ffffff" fill-opacity="1"><g transform="translate(286.864784, 222.689349)"><g><path d="M 11.617188 -18.230469 C 9.265625 -18.230469 7.65625 -17.492188 6.34375 -15.878906 L 5.472656 -18.128906 L 2.351562 -18.128906 L 2.351562 0 L 7.253906 0 L 7.253906 -9.402344 C 7.253906 -12.355469 8.328125 -13.597656 11.078125 -13.597656 L 13.226562 -13.597656 L 13.226562 -18.230469 Z M 11.617188 -18.230469 "/></g></g></g><path stroke-linecap="butt" transform="matrix(0.00000000157203, -0.900709, 0.900709, 0.00000000157203, 185.898787, 233.709813)" fill="none" stroke-linejoin="miter" d="M -0.00124884 1.500166 L 119.548622 1.500166 " stroke="#ffffff" stroke-width="3" stroke-opacity="1" stroke-miterlimit="4"/></svg>