<svg xmlns="http://www.w3.org/2000/svg" xmlns:xlink="http://www.w3.org/1999/xlink" zoomAndPan="magnify" preserveAspectRatio="xMidYMid meet" version="1.0" viewBox="40.18 115.07 285.5 129.91"><defs><g/></defs><path fill="#505464" d="M 70.898438 198.292969 C 66.703125 202.59375 60.167969 196.222656 64.363281 191.910156 C 68.558594 187.609375 75.09375 193.992188 70.898438 198.292969 Z M 166.234375 192.441406 C 164.421875 200.972656 160.78125 209.199219 155.300781 216.488281 C 158.96875 220.730469 153.550781 226.808594 148.921875 223.726562 C 144.183594 228.324219 138.882812 232.015625 133.253906 234.789062 C 135.15625 242.652344 124.027344 246.53125 120.535156 239.335938 C 116.199219 240.394531 111.71875 240.996094 107.171875 241.078125 C 104.820312 246.777344 96.382812 246.035156 95.003906 240.089844 C 88.929688 238.972656 82.78125 236.855469 77.410156 234.046875 C 72.167969 238.386719 64.515625 233.308594 66.597656 226.820312 C 59.910156 221.226562 54.539062 214.335938 50.742188 206.578125 C 43.863281 207.847656 40.316406 198.421875 46.414062 194.882812 C 44.746094 188.421875 44.113281 181.625 44.664062 174.75 C 37.53125 172.550781 39.328125 161.503906 47.0625 161.949219 C 50.71875 149.703125 57.875 139.417969 67.125 131.894531 C 63.105469 124.042969 73.296875 116.242188 79.785156 122.5625 C 80.101562 122.871094 80.371094 123.199219 80.632812 123.539062 C 90.421875 119.097656 101.410156 117.191406 112.578125 118.414062 C 114.65625 112.960938 122.863281 114.570312 122.746094 120.390625 C 125.695312 121.210938 128.597656 122.269531 131.417969 123.550781 C 134.214844 120.578125 139.035156 123.28125 138.128906 127.101562 C 139.730469 128.078125 141.304688 129.15625 142.84375 130.308594 C 146.5 133.035156 149.894531 136.222656 152.847656 139.664062 C 156.042969 138.441406 159.074219 142.285156 157.007812 145.109375 C 159.132812 148.246094 160.945312 151.535156 162.4375 154.945312 C 167.773438 154.15625 170.394531 161.503906 165.632812 164.207031 C 166.9375 169.285156 167.585938 174.503906 167.574219 179.722656 C 174.894531 181.402344 173.742188 192.335938 166.234375 192.441406 Z M 150.871094 144.472656 C 148.4375 144.777344 146.003906 145.203125 143.59375 145.707031 C 143.703125 146.824219 143.570312 147.964844 143.207031 149.035156 C 148.671875 151.160156 153.984375 153.851562 159.039062 157.085938 L 160.320312 155.804688 C 159.5 153.933594 158.582031 152.101562 157.582031 150.324219 C 156.832031 148.996094 156.019531 147.691406 155.160156 146.425781 C 153.515625 146.917969 151.601562 146.09375 150.871094 144.472656 Z M 100.917969 171.917969 C 108.085938 174.503906 115.023438 178.03125 121.535156 182.507812 C 121.804688 182.273438 122.097656 182.074219 122.390625 181.910156 C 119.910156 175.066406 116.574219 168.460938 112.367188 162.292969 C 111.074219 162.855469 109.546875 162.726562 108.347656 161.890625 C 105.523438 164.042969 102.808594 166.382812 100.210938 168.910156 C 100.777344 169.824219 101.011719 170.882812 100.917969 171.917969 Z M 127.929688 144.578125 C 128.058594 144.027344 128.257812 143.472656 128.515625 142.957031 C 121.617188 138.5625 114.246094 135.210938 106.640625 132.90625 C 104.984375 135.128906 103.445312 137.410156 102.023438 139.722656 C 103.117188 140.488281 103.960938 141.605469 104.363281 142.992188 C 112.25 142.511719 120.171875 143.039062 127.929688 144.578125 Z M 127.703125 146.789062 C 120.089844 145.25 112.320312 144.71875 104.585938 145.203125 C 104.503906 146.234375 104.160156 147.246094 103.574219 148.152344 C 105.621094 150.21875 107.546875 152.359375 109.355469 154.570312 C 110.789062 154.074219 112.484375 154.382812 113.625 155.53125 C 118.195312 152.652344 122.980469 150.207031 127.894531 148.210938 C 127.785156 147.753906 127.726562 147.269531 127.703125 146.789062 Z M 92.527344 146.789062 C 78.222656 149.65625 64.503906 156.074219 52.773438 165.992188 C 53.054688 166.664062 53.222656 167.378906 53.257812 168.097656 C 65.996094 165.722656 79.101562 166.050781 91.773438 169.167969 C 91.984375 168.769531 92.253906 168.390625 92.585938 168.0625 C 94.21875 166.394531 96.769531 166.148438 98.660156 167.34375 C 101.304688 164.773438 104.066406 162.386719 106.9375 160.199219 C 106.300781 158.789062 106.488281 157.085938 107.535156 155.851562 C 105.820312 153.757812 103.984375 151.726562 102.046875 149.761719 C 98.753906 152.148438 93.867188 150.609375 92.527344 146.789062 Z M 124.507812 181.238281 C 125.285156 181.15625 126.058594 181.25 126.8125 181.496094 C 130.820312 172.824219 133.371094 163.644531 134.429688 154.335938 C 132.089844 153.96875 129.84375 152.417969 128.679688 150.277344 C 123.871094 152.230469 119.207031 154.617188 114.742188 157.449219 C 115.035156 158.613281 114.824219 159.871094 114.105469 160.894531 C 118.476562 167.296875 121.945312 174.140625 124.507812 181.238281 Z M 128.726562 182.625 C 129.257812 183.105469 129.667969 183.671875 129.960938 184.269531 C 134.027344 182.507812 137.976562 180.4375 141.785156 178.054688 C 141.328125 169.988281 139.789062 161.996094 137.15625 154.289062 C 136.988281 154.324219 136.824219 154.347656 136.660156 154.371094 C 135.566406 164.066406 132.921875 173.621094 128.726562 182.625 Z M 129.960938 189.054688 C 133.417969 192.074219 136.589844 195.308594 139.480469 198.703125 C 139.835938 198.550781 140.210938 198.46875 140.597656 198.445312 C 141.632812 192.535156 142.054688 186.550781 141.890625 180.59375 C 138.210938 182.824219 134.414062 184.777344 130.503906 186.445312 C 130.539062 187.339844 130.359375 188.230469 129.960938 189.054688 Z M 143.914062 176.691406 C 147.628906 174.210938 151.1875 171.4375 154.550781 168.34375 C 150.683594 162.621094 146.085938 157.238281 140.902344 152.476562 C 140.386719 152.921875 139.835938 153.300781 139.246094 153.59375 C 141.796875 161.09375 143.359375 168.851562 143.914062 176.691406 Z M 156.183594 166.804688 C 157.359375 165.675781 158.511719 164.511719 159.628906 163.300781 C 158.605469 162.234375 158.015625 160.738281 158.242188 159.175781 C 153.328125 156.003906 148.179688 153.359375 142.867188 151.265625 C 147.910156 155.980469 152.386719 161.234375 156.183594 166.804688 Z M 136.074219 129.710938 C 136.542969 132.671875 136.871094 135.644531 137.050781 138.621094 C 139.683594 139.078125 142.089844 141.027344 143.078125 143.554688 C 145.582031 143.027344 148.097656 142.59375 150.625 142.273438 C 150.707031 141.863281 150.871094 141.453125 151.105469 141.085938 C 147.097656 136.363281 142.328125 132.285156 137.035156 129.027344 C 136.742188 129.308594 136.425781 129.546875 136.074219 129.710938 Z M 121.78125 123.328125 C 126.070312 128.253906 129.738281 133.519531 132.792969 139.042969 C 133.453125 138.785156 134.132812 138.621094 134.839844 138.550781 C 134.664062 135.714844 134.34375 132.90625 133.898438 130.097656 C 131.699219 129.863281 130.089844 127.699219 130.453125 125.539062 C 127.832031 124.351562 125.09375 123.351562 122.25 122.539062 C 122.109375 122.8125 121.957031 123.082031 121.78125 123.328125 Z M 108.085938 131.039062 C 115.621094 133.402344 122.921875 136.761719 129.773438 141.121094 L 130.878906 140.113281 C 127.90625 134.730469 124.332031 129.605469 120.171875 124.820312 C 118.136719 126.007812 115.703125 125.585938 114.082031 124.199219 Z M 81.699219 125.527344 C 81.863281 125.972656 81.984375 126.429688 82.066406 126.902344 C 90.058594 127.007812 98.050781 128.160156 105.808594 130.367188 L 112.707031 122.421875 C 112.449219 121.871094 112.296875 121.269531 112.25 120.625 C 101.847656 119.542969 91.339844 121.1875 81.699219 125.527344 Z M 81.417969 131.683594 C 85.898438 134.058594 90.222656 136.820312 94.335938 139.996094 C 95.980469 138.585938 98.121094 138.253906 100.011719 138.785156 C 101.363281 136.5625 102.808594 134.386719 104.375 132.261719 C 97.097656 130.261719 89.621094 129.214844 82.136719 129.109375 C 82.054688 129.992188 81.804688 130.863281 81.417969 131.683594 Z M 49.296875 162.480469 L 51.574219 164.113281 C 63.578125 154.027344 77.585938 147.515625 92.171875 144.601562 C 92.195312 143.601562 92.457031 142.605469 92.949219 141.710938 C 88.894531 138.585938 84.628906 135.855469 80.195312 133.542969 C 77.117188 137.03125 71.675781 137.136719 68.453125 133.765625 C 59.390625 141.21875 52.527344 151.714844 49.296875 162.480469 Z M 92.160156 174.363281 C 91.492188 173.457031 91.175781 172.375 91.199219 171.292969 C 78.632812 168.214844 65.609375 167.945312 52.984375 170.390625 C 52.152344 173.199219 49.554688 174.925781 46.863281 175.03125 C 46.355469 181.554688 46.945312 187.996094 48.507812 194.132812 C 55.3125 192.957031 58.816406 202.21875 52.820312 205.792969 C 56.394531 213.042969 61.414062 219.507812 67.632812 224.796875 C 68.570312 223.515625 69.96875 222.554688 71.699219 222.199219 C 73.648438 205.074219 80.464844 188.386719 92.160156 174.363281 Z M 79.457031 226.5625 C 96.535156 219.671875 111.8125 206.898438 121.710938 190.957031 C 119.652344 189.347656 119.066406 186.503906 120.171875 184.257812 C 113.859375 179.933594 107.148438 176.523438 100.199219 174.023438 C 98.871094 176.171875 96.027344 176.914062 93.84375 175.796875 C 82.511719 189.382812 75.882812 205.535156 73.917969 222.117188 C 76.375 222.421875 78.621094 224.210938 79.457031 226.5625 Z M 125.414062 192.097656 C 124.835938 192.132812 124.261719 192.085938 123.707031 191.933594 C 113.484375 208.496094 97.613281 221.71875 79.855469 228.78125 C 79.867188 230.109375 79.515625 231.308594 78.890625 232.320312 C 83.792969 234.835938 89.363281 236.75 94.875 237.808594 C 95.898438 229.828125 107.910156 230.804688 107.628906 238.855469 C 111.800781 238.738281 115.914062 238.183594 119.910156 237.222656 C 119.523438 233.683594 122.015625 230.050781 125.976562 229.652344 C 128.457031 217.238281 128.257812 204.429688 125.414062 192.097656 Z M 128.609375 229.910156 C 133.429688 222.152344 136.929688 213.820312 139.140625 205.226562 C 137.332031 204.253906 136.71875 201.855469 137.789062 200.136719 C 134.992188 196.847656 131.9375 193.734375 128.597656 190.816406 C 128.269531 191.101562 127.917969 191.335938 127.539062 191.535156 C 130.453125 204.097656 130.691406 217.167969 128.210938 229.816406 C 128.339844 229.828125 128.480469 229.863281 128.609375 229.910156 Z M 148.507812 215.921875 C 146.59375 212.328125 144.417969 208.824219 141.984375 205.476562 C 141.761719 205.546875 141.539062 205.605469 141.316406 205.628906 C 139.082031 214.417969 135.507812 222.953125 130.609375 230.898438 L 132.324219 232.707031 C 137.847656 229.96875 142.925781 226.382812 147.367188 222.070312 C 146.242188 220.074219 146.664062 217.441406 148.507812 215.921875 Z M 163.964844 192.0625 C 159.570312 190.488281 158.242188 184.519531 161.789062 181.261719 C 160.085938 177.5 158.078125 173.796875 155.785156 170.226562 C 152.082031 173.585938 148.15625 176.597656 144.054688 179.253906 C 144.335938 185.835938 143.902344 192.453125 142.75 198.988281 C 144.523438 200.078125 144.996094 202.523438 143.773438 204.183594 C 146.277344 207.636719 148.519531 211.234375 150.484375 214.949219 C 151.457031 214.714844 152.492188 214.796875 153.433594 215.171875 C 158.382812 208.578125 162.144531 200.46875 163.964844 192.0625 Z M 165.304688 179.617188 C 165.304688 174.574219 164.671875 169.625 163.449219 164.855469 C 162.765625 164.890625 162.097656 164.785156 161.496094 164.546875 C 160.179688 165.980469 158.816406 167.355469 157.429688 168.683594 C 159.804688 172.363281 161.894531 176.171875 163.671875 180.0625 C 164.199219 179.839844 164.753906 179.6875 165.304688 179.617188 Z M 154.164062 196.355469 C 151.117188 195.507812 149.835938 200.148438 152.882812 200.996094 C 155.914062 201.84375 157.207031 197.199219 154.164062 196.355469 Z M 108.289062 193.554688 C 112.214844 194.179688 113.164062 188.195312 109.238281 187.574219 C 105.3125 186.949219 104.363281 192.933594 108.289062 193.554688 Z M 108.828125 218.78125 C 103.855469 217.40625 101.753906 224.984375 106.734375 226.359375 C 111.707031 227.734375 113.800781 220.15625 108.828125 218.78125 Z M 85.484375 154.289062 C 81.300781 153.125 79.527344 159.515625 83.722656 160.679688 C 87.90625 161.832031 89.667969 155.4375 85.484375 154.289062 Z M 85.484375 154.289062 " fill-opacity="1" fill-rule="nonzero"/><g fill="#505464" fill-opacity="1"><g transform="translate(197.157414, 154.697029)"><g><path d="M 18.867188 -23.503906 L 0.703125 -23.503906 L 0.703125 -18.769531 L 7.253906 -18.769531 L 7.253906 0 L 12.320312 0 L 12.320312 -18.769531 L 18.867188 -18.769531 Z M 18.867188 -23.503906 "/></g></g></g><g fill="#505464" fill-opacity="1"><g transform="translate(216.764112, 154.697029)"><g><path d="M 19.941406 -9.097656 C 19.941406 -14.335938 16.117188 -18.632812 10.542969 -18.632812 C 5.171875 -18.632812 1.140625 -14.503906 1.140625 -9.066406 C 1.140625 -3.625 5.203125 0.539062 10.542969 0.539062 C 14.773438 0.539062 18.230469 -1.980469 19.539062 -5.941406 L 14.402344 -5.941406 C 13.664062 -4.632812 12.253906 -3.828125 10.542969 -3.828125 C 8.160156 -3.828125 6.546875 -5.203125 6.109375 -7.6875 L 19.84375 -7.6875 C 19.910156 -8.160156 19.941406 -8.628906 19.941406 -9.097656 Z M 10.542969 -14.4375 C 12.757812 -14.4375 14.335938 -13.226562 15.042969 -11.011719 L 6.246094 -11.011719 C 6.816406 -13.160156 8.359375 -14.4375 10.542969 -14.4375 Z M 10.542969 -14.4375 "/></g></g></g><g fill="#505464" fill-opacity="1"><g transform="translate(237.848028, 154.697029)"><g><path d="M 18.96875 0 L 12.1875 -9.46875 L 18.332031 -18.128906 L 12.691406 -18.128906 L 7.253906 -10.074219 L 7.253906 -24.644531 L 2.351562 -24.644531 L 2.351562 0 L 7.253906 0 L 7.253906 -8.664062 L 13.027344 0 Z M 18.96875 0 "/></g></g></g><g fill="#505464" fill-opacity="1"><g transform="translate(256.682542, 154.697029)"><g><path d="M 12.65625 -18.53125 C 10.207031 -18.53125 8.023438 -17.492188 6.648438 -15.878906 L 5.707031 -18.128906 L 2.351562 -18.128906 L 2.351562 0 L 7.253906 0 L 7.253906 -9.5 C 7.253906 -12.421875 8.796875 -14.234375 11.316406 -14.234375 C 13.429688 -14.234375 14.46875 -12.925781 14.46875 -10.171875 L 14.46875 0 L 19.371094 0 L 19.371094 -10.980469 C 19.371094 -15.578125 16.789062 -18.53125 12.65625 -18.53125 Z M 12.65625 -18.53125 "/></g></g></g><g fill="#505464" fill-opacity="1"><g transform="translate(278.202911, 154.697029)"><g><path d="M 10.945312 0.539062 C 16.550781 0.539062 20.75 -3.59375 20.75 -9.066406 C 20.75 -14.539062 16.550781 -18.632812 10.945312 -18.632812 C 5.339844 -18.632812 1.140625 -14.539062 1.140625 -9.066406 C 1.140625 -3.59375 5.339844 0.539062 10.945312 0.539062 Z M 10.945312 -4.097656 C 8.125 -4.097656 6.109375 -6.109375 6.109375 -9.066406 C 6.109375 -11.984375 8.125 -14.035156 10.945312 -14.035156 C 13.765625 -14.035156 15.78125 -11.984375 15.78125 -9.066406 C 15.78125 -6.109375 13.765625 -4.097656 10.945312 -4.097656 Z M 10.945312 -4.097656 "/></g></g></g><g fill="#505464" fill-opacity="1"><g transform="translate(197.157414, 188.693186)"><g><path d="M 18.867188 -23.503906 L 0.703125 -23.503906 L 0.703125 -18.769531 L 7.253906 -18.769531 L 7.253906 0 L 12.320312 0 L 12.320312 -18.769531 L 18.867188 -18.769531 Z M 18.867188 -23.503906 "/></g></g></g><g fill="#505464" fill-opacity="1"><g transform="translate(216.764112, 188.693186)"><g><path d="M 11.617188 -18.230469 C 9.265625 -18.230469 7.65625 -17.492188 6.34375 -15.878906 L 5.472656 -18.128906 L 2.351562 -18.128906 L 2.351562 0 L 7.253906 0 L 7.253906 -9.402344 C 7.253906 -12.355469 8.328125 -13.597656 11.078125 -13.597656 L 13.226562 -13.597656 L 13.226562 -18.230469 Z M 11.617188 -18.230469 "/></g></g></g><g fill="#505464" fill-opacity="1"><g transform="translate(230.428372, 188.693186)"><g><path d="M 2.351562 -20.546875 L 7.21875 -20.546875 L 7.21875 -25.078125 L 2.351562 -25.078125 Z M 2.351562 0 L 7.253906 0 L 7.253906 -18.128906 L 2.351562 -18.128906 Z M 2.351562 0 "/></g></g></g><g fill="#505464" fill-opacity="1"><g transform="translate(240.030282, 188.693186)"><g><path d="M 12.222656 -18.632812 C 10.339844 -18.632812 8.628906 -18.097656 7.253906 -17.121094 L 7.253906 -24.644531 L 2.351562 -24.644531 L 2.351562 0.0351562 L 5.941406 0.0351562 L 6.546875 -1.511719 C 8.058594 -0.203125 10.003906 0.539062 12.222656 0.539062 C 17.726562 0.539062 21.757812 -3.558594 21.757812 -9.03125 C 21.757812 -14.539062 17.726562 -18.632812 12.222656 -18.632812 Z M 11.816406 -4.097656 C 8.964844 -4.097656 6.882812 -6.246094 6.882812 -9.066406 C 6.882812 -11.886719 8.964844 -14.035156 11.816406 -14.035156 C 14.671875 -14.035156 16.753906 -11.886719 16.753906 -9.066406 C 16.753906 -6.246094 14.671875 -4.097656 11.816406 -4.097656 Z M 11.816406 -4.097656 "/></g></g></g><g fill="#505464" fill-opacity="1"><g transform="translate(262.960721, 188.693186)"><g><path d="M 10.609375 0.539062 C 15.746094 0.539062 19.136719 -2.753906 19.136719 -7.65625 L 19.136719 -18.128906 L 14.234375 -18.128906 L 14.234375 -8.191406 C 14.234375 -5.640625 12.890625 -4.097656 10.609375 -4.097656 C 8.359375 -4.097656 6.984375 -5.605469 6.984375 -8.191406 L 6.984375 -18.128906 L 2.082031 -18.128906 L 2.082031 -7.65625 C 2.082031 -2.753906 5.507812 0.539062 10.609375 0.539062 Z M 10.609375 0.539062 "/></g></g></g><g fill="#505464" fill-opacity="1"><g transform="translate(284.212507, 188.693186)"><g><path d="M 12.65625 -18.53125 C 10.207031 -18.53125 8.023438 -17.492188 6.648438 -15.878906 L 5.707031 -18.128906 L 2.351562 -18.128906 L 2.351562 0 L 7.253906 0 L 7.253906 -9.5 C 7.253906 -12.421875 8.796875 -14.234375 11.316406 -14.234375 C 13.429688 -14.234375 14.46875 -12.925781 14.46875 -10.171875 L 14.46875 0 L 19.371094 0 L 19.371094 -10.980469 C 19.371094 -15.578125 16.789062 -18.53125 12.65625 -18.53125 Z M 12.65625 -18.53125 "/></g></g></g><g fill="#505464" fill-opacity="1"><g transform="translate(305.732876, 188.693186)"><g><path d="M 19.941406 -9.097656 C 19.941406 -14.335938 16.117188 -18.632812 10.542969 -18.632812 C 5.171875 -18.632812 1.140625 -14.503906 1.140625 -9.066406 C 1.140625 -3.625 5.203125 0.539062 10.542969 0.539062 C 14.773438 0.539062 18.230469 -1.980469 19.539062 -5.941406 L 14.402344 -5.941406 C 13.664062 -4.632812 12.253906 -3.828125 10.542969 -3.828125 C 8.160156 -3.828125 6.546875 -5.203125 6.109375 -7.6875 L 19.84375 -7.6875 C 19.910156 -8.160156 19.941406 -8.628906 19.941406 -9.097656 Z M 10.542969 -14.4375 C 12.757812 -14.4375 14.335938 -13.226562 15.042969 -11.011719 L 6.246094 -11.011719 C 6.816406 -13.160156 8.359375 -14.4375 10.542969 -14.4375 Z M 10.542969 -14.4375 "/></g></g></g><g fill="#505464" fill-opacity="1"><g transform="translate(197.157414, 222.689342)"><g><path d="M 9.402344 0.539062 C 14.539062 0.539062 17.929688 -3.023438 17.929688 -7.992188 L 17.929688 -23.503906 L 12.925781 -23.503906 L 12.925781 -8.257812 C 12.925781 -5.808594 11.484375 -4.265625 9.402344 -4.265625 C 7.21875 -4.265625 5.773438 -5.84375 5.773438 -8.257812 L 5.773438 -8.863281 L 0.738281 -8.863281 L 0.738281 -7.992188 C 0.738281 -3.023438 4.363281 0.539062 9.402344 0.539062 Z M 9.402344 0.539062 "/></g></g></g><g fill="#505464" fill-opacity="1"><g transform="translate(217.603443, 222.689342)"><g><path d="M 17.121094 -18.128906 L 16.621094 -16.417969 C 15.042969 -17.792969 12.992188 -18.632812 10.644531 -18.632812 C 5.203125 -18.632812 1.140625 -14.539062 1.140625 -9.066406 C 1.140625 -3.59375 5.203125 0.539062 10.644531 0.539062 C 12.960938 0.539062 14.972656 -0.269531 16.519531 -1.644531 L 16.953125 0 L 20.78125 0 L 20.78125 -18.128906 Z M 11.046875 -4.097656 C 8.191406 -4.097656 6.109375 -6.246094 6.109375 -9.066406 C 6.109375 -11.917969 8.191406 -14.035156 11.046875 -14.035156 C 13.898438 -14.035156 15.980469 -11.917969 15.980469 -9.066406 C 15.980469 -6.210938 13.898438 -4.097656 11.046875 -4.097656 Z M 11.046875 -4.097656 "/></g></g></g><g fill="#505464" fill-opacity="1"><g transform="translate(240.76889, 222.689342)"><g><path d="M 12.222656 -18.632812 C 10.339844 -18.632812 8.628906 -18.097656 7.253906 -17.121094 L 7.253906 -24.644531 L 2.351562 -24.644531 L 2.351562 0.0351562 L 5.941406 0.0351562 L 6.546875 -1.511719 C 8.058594 -0.203125 10.003906 0.539062 12.222656 0.539062 C 17.726562 0.539062 21.757812 -3.558594 21.757812 -9.03125 C 21.757812 -14.539062 17.726562 -18.632812 12.222656 -18.632812 Z M 11.816406 -4.097656 C 8.964844 -4.097656 6.882812 -6.246094 6.882812 -9.066406 C 6.882812 -11.886719 8.964844 -14.035156 11.816406 -14.035156 C 14.671875 -14.035156 16.753906 -11.886719 16.753906 -9.066406 C 16.753906 -6.246094 14.671875 -4.097656 11.816406 -4.097656 Z M 11.816406 -4.097656 "/></g></g></g><g fill="#505464" fill-opacity="1"><g transform="translate(263.69933, 222.689342)"><g><path d="M 17.121094 -18.128906 L 16.621094 -16.417969 C 15.042969 -17.792969 12.992188 -18.632812 10.644531 -18.632812 C 5.203125 -18.632812 1.140625 -14.539062 1.140625 -9.066406 C 1.140625 -3.59375 5.203125 0.539062 10.644531 0.539062 C 12.960938 0.539062 14.972656 -0.269531 16.519531 -1.644531 L 16.953125 0 L 20.78125 0 L 20.78125 -18.128906 Z M 11.046875 -4.097656 C 8.191406 -4.097656 6.109375 -6.246094 6.109375 -9.066406 C 6.109375 -11.917969 8.191406 -14.035156 11.046875 -14.035156 C 13.898438 -14.035156 15.980469 -11.917969 15.980469 -9.066406 C 15.980469 -6.210938 13.898438 -4.097656 11.046875 -4.097656 Z M 11.046875 -4.097656 "/></g></g></g><g fill="#505464" fill-opacity="1"><g transform="translate(286.864777, 222.689342)"><g><path d="M 11.617188 -18.230469 C 9.265625 -18.230469 7.65625 -17.492188 6.34375 -15.878906 L 5.472656 -18.128906 L 2.351562 -18.128906 L 2.351562 0 L 7.253906 0 L 7.253906 -9.402344 C 7.253906 -12.355469 8.328125 -13.597656 11.078125 -13.597656 L 13.226562 -13.597656 L 13.226562 -18.230469 Z M 11.617188 -18.230469 "/></g></g></g><path stroke-linecap="butt" transform="matrix(0.000000001309, -0.75, 0.75, 0.000000001309, 185.747292, 233.707249)" fill="none" stroke-linejoin="miter" d="M 0.000290941 1.998403 L 143.573217 1.998403 " stroke="#505464" stroke-width="4" stroke-opacity="1" stroke-miterlimit="4"/></svg>